
            <svg data-logo="logo" xmlns="http://www.w3.org/2000/svg" viewBox="0 0 284 40" width="300px" height="40px">
                <g id="logogram" transform="translate(0, 0)"><path d="M68.75 0H96.25L72.5 40H45L68.75 0Z" fill="#FF7A00"/><path d="M43.75 0H63.75L40 40H20L43.75 0Z" fill="#FF9736"/><path d="M23.75 0H38.75L15 40H0L23.75 0Z" fill="#FFBC7D"/></g>
                <g id="logotype" transform="translate(103, 2.5)"><path fill="#3141b9" d="M11.42 35L7.02 35L7.02 34.71L7.97 34.42Q8.49 34.27 8.73 33.85Q8.96 33.43 8.96 32.85L8.96 32.85L8.96 18.90Q8.64 18.21 8.45 17.86Q8.26 17.51 8.03 17.27Q7.80 17.02 7.39 16.64L7.39 16.64L6.90 16.15L6.90 15.86L12.03 15.86L21.66 29.00L21.66 18.06Q21.66 17.48 21.47 17.02Q21.28 16.56 20.70 16.41L20.70 16.41L19.75 16.15L19.75 15.86L23.89 15.86L23.89 16.15L23.11 16.41Q22.59 16.58 22.47 17.02Q22.36 17.45 22.36 18.04L22.36 18.04L22.36 35.09L20.73 35.09L9.65 19.86L9.65 32.85Q9.65 33.43 9.83 33.84Q10.00 34.25 10.55 34.42L10.55 34.42L11.42 34.71L11.42 35ZM40.05 35L25.58 35L25.58 34.71L26.24 34.45Q26.73 34.25 26.92 33.91Q27.11 33.58 27.11 33.00L27.11 33.00L27.11 17.86Q27.11 17.28 26.95 16.95Q26.79 16.61 26.24 16.41L26.24 16.41L25.58 16.15L25.58 15.86L39.47 15.86L39.64 20.33L39.35 20.33L38.10 17.60Q37.84 17.08 37.55 16.76Q37.26 16.44 36.68 16.44L36.68 16.44L31.46 16.44L31.46 24.82L34.56 24.82Q35.15 24.82 35.45 24.52Q35.75 24.21 35.99 23.69L35.99 23.69L36.57 22.53L36.86 22.53L36.86 27.75L36.57 27.75L35.99 26.53Q35.73 26.01 35.44 25.71Q35.15 25.40 34.56 25.40L34.56 25.40L31.46 25.40L31.46 34.42L37.32 34.42Q37.90 34.42 38.22 34.12Q38.54 33.81 38.74 33.26L38.74 33.26L39.93 30.53L40.22 30.53L40.05 35ZM61.01 35L51.88 35L51.88 34.71L53.07 34.42Q54.26 34.16 54.26 32.97L54.26 32.97L54.26 16.44L51.79 16.44Q50.72 16.44 50.25 17.01Q49.79 17.57 49.27 18.56L49.27 18.56L48.22 20.59L47.93 20.59L48.08 15.86L64.81 15.86L64.93 20.59L64.64 20.59L63.59 18.56Q63.10 17.57 62.64 17.01Q62.17 16.44 61.10 16.44L61.10 16.44L58.64 16.44L58.64 32.97Q58.64 34.16 59.82 34.42L59.82 34.42L61.01 34.71L61.01 35ZM73.63 35L66.12 35L66.12 34.71L66.55 34.59Q67.13 34.42 67.35 34.07Q67.57 33.72 67.57 33.17L67.57 33.17L67.57 24.10Q67.57 23.46 67.35 23.15Q67.13 22.85 66.55 22.73L66.55 22.73L66.12 22.62L66.12 22.33L71.11 20.64L71.40 20.93L71.66 23.43L71.66 23.66Q72.06 22.85 72.71 22.17Q73.37 21.49 74.16 21.05Q74.96 20.62 75.75 20.62L75.75 20.62Q76.85 20.62 77.43 21.23Q78.01 21.83 78.01 22.76L78.01 22.76Q78.01 23.75 77.44 24.28Q76.88 24.82 76.09 24.82L76.09 24.82Q74.88 24.82 73.95 23.60L73.95 23.60L73.89 23.55Q73.60 23.14 73.22 23.10Q72.85 23.05 72.53 23.46L72.53 23.46Q72.24 23.72 72.05 24.08Q71.86 24.44 71.69 24.91L71.69 24.91L71.69 33.00Q71.69 34.16 72.70 34.45L72.70 34.45L73.63 34.71L73.63 35ZM83.14 35.44L83.14 35.44Q81.46 35.44 80.31 34.48Q79.17 33.52 79.17 31.72L79.17 31.72Q79.17 30.36 80.56 29.21Q81.95 28.07 84.94 27.49L84.94 27.49Q85.40 27.40 85.98 27.30Q86.56 27.20 87.20 27.08L87.20 27.08L87.20 24.79Q87.20 22.82 86.72 22.02Q86.24 21.23 85.23 21.23L85.23 21.23Q84.53 21.23 84.13 21.67Q83.72 22.12 83.60 23.23L83.60 23.23L83.55 23.55Q83.49 24.79 82.94 25.37Q82.39 25.95 81.57 25.95L81.57 25.95Q80.82 25.95 80.33 25.49Q79.83 25.02 79.83 24.24L79.83 24.24Q79.83 23.05 80.66 22.24Q81.49 21.43 82.85 21.02Q84.21 20.62 85.81 20.62L85.81 20.62Q88.39 20.62 89.80 21.88Q91.20 23.14 91.20 25.98L91.20 25.98L91.20 32.39Q91.20 33.70 92.42 33.70L92.42 33.70L93.06 33.70L93.32 33.93Q92.77 34.62 92.12 35Q91.46 35.38 90.27 35.38L90.27 35.38Q89.00 35.38 88.26 34.78Q87.52 34.19 87.29 33.20L87.29 33.20Q86.42 34.13 85.50 34.78Q84.59 35.44 83.14 35.44ZM84.91 33.67L84.91 33.67Q85.49 33.67 86.00 33.39Q86.50 33.12 87.20 32.53L87.20 32.53L87.20 27.66Q86.91 27.72 86.62 27.78Q86.33 27.84 85.95 27.89L85.95 27.89Q84.62 28.24 83.82 29.07Q83.02 29.90 83.02 31.29L83.02 31.29Q83.02 32.48 83.58 33.07Q84.13 33.67 84.91 33.67ZM102.11 35.09L100.42 35.09L95.29 22.76Q94.89 21.78 93.90 21.46L93.90 21.46L93.49 21.34L93.49 21.05L101.00 21.05L101.00 21.34L100.48 21.46Q99.35 21.75 99.79 22.96L99.79 22.96L102.83 31.06L105.67 23.02Q105.91 22.44 105.79 22.07Q105.67 21.69 105.09 21.52L105.09 21.52L104.37 21.34L104.37 21.05L108.57 21.05L108.57 21.34L107.73 21.54Q107.18 21.69 106.88 21.98Q106.57 22.27 106.37 22.85L106.37 22.85L102.11 35.09ZM116.58 20.62L116.58 20.62Q118.46 20.62 119.80 21.38Q121.13 22.15 121.84 23.47Q122.55 24.79 122.55 26.47L122.55 26.47Q122.55 26.79 122.52 27.13Q122.49 27.46 122.41 27.72L122.41 27.72L113.76 27.72Q113.79 30.85 114.88 32.23Q115.97 33.61 118.11 33.61L118.11 33.61Q119.56 33.61 120.46 33.14Q121.36 32.68 122.15 31.78L122.15 31.78L122.44 32.04Q121.54 33.64 120.04 34.54Q118.55 35.44 116.46 35.44L116.46 35.44Q114.40 35.44 112.81 34.55Q111.21 33.67 110.31 32.01Q109.41 30.36 109.41 28.07L109.41 28.07Q109.41 25.69 110.46 24.02Q111.50 22.36 113.14 21.49Q114.78 20.62 116.58 20.62ZM116.49 21.20L116.49 21.20Q115.65 21.20 115.05 21.70Q114.46 22.21 114.13 23.50Q113.79 24.79 113.76 27.14L113.76 27.14L118.72 27.14Q119.01 23.98 118.49 22.59Q117.97 21.20 116.49 21.20ZM131.02 35L124.09 35L124.09 34.71L124.44 34.59Q125.48 34.25 125.48 33.14L125.48 33.14L125.48 17.63Q125.48 17.05 125.25 16.74Q125.02 16.44 124.44 16.29L124.44 16.29L124.06 16.21L124.06 15.92L129.37 14.67L129.71 14.93L129.60 18.99L129.60 28.91Q129.60 29.98 129.61 31.04Q129.63 32.10 129.63 33.14L129.63 33.14Q129.63 33.72 129.86 34.09Q130.09 34.45 130.64 34.62L130.64 34.62L131.02 34.71L131.02 35ZM137.31 35.44L137.31 35.44Q135.89 35.44 134.76 35.10Q133.63 34.77 132.67 34.27L132.67 34.27L132.70 30.82L132.99 30.82L133.98 32.56Q134.62 33.72 135.38 34.29Q136.15 34.85 137.34 34.85L137.34 34.85Q138.73 34.85 139.59 34.23Q140.44 33.61 140.44 32.56L140.44 32.56Q140.44 31.61 139.84 31.00Q139.23 30.39 137.57 29.90L137.57 29.90L136.36 29.52Q134.59 29.00 133.57 27.89Q132.56 26.79 132.56 25.20L132.56 25.20Q132.56 23.28 134.06 21.95Q135.57 20.62 138.39 20.62L138.39 20.62Q139.52 20.62 140.52 20.86Q141.52 21.11 142.45 21.60L142.45 21.60L142.27 24.73L141.98 24.73L140.97 22.94Q140.42 21.98 139.88 21.59Q139.34 21.20 138.27 21.20L138.27 21.20Q137.28 21.20 136.41 21.75Q135.54 22.30 135.54 23.31L135.54 23.31Q135.54 24.30 136.28 24.88Q137.02 25.46 138.47 25.95L138.47 25.95L139.78 26.33Q141.87 26.97 142.76 28.08Q143.66 29.20 143.66 30.77L143.66 30.77Q143.66 32.88 142.00 34.16Q140.33 35.44 137.31 35.44ZM148.71 35.44L148.71 35.44Q147.67 35.44 146.94 34.71Q146.22 33.98 146.22 32.97L146.22 32.97Q146.22 31.95 146.94 31.20Q147.67 30.45 148.71 30.45L148.71 30.45Q149.75 30.45 150.48 31.20Q151.20 31.95 151.20 32.97L151.20 32.97Q151.20 33.98 150.48 34.71Q149.75 35.44 148.71 35.44ZM157.29 35L153.29 35L153.29 34.71L154.02 34.45Q154.60 34.22 154.92 33.88Q155.23 33.55 155.44 32.94L155.44 32.94L161.41 15.80L163.88 15.80L169.76 33.06Q170.00 33.70 170.29 34.03Q170.58 34.36 171.18 34.59L171.18 34.59L171.53 34.71L171.53 35L164.17 35L164.17 34.71L164.60 34.56Q165.21 34.33 165.34 33.91Q165.47 33.49 165.30 32.91L165.30 32.91L163.93 28.74L157.50 28.74L156.10 32.83Q155.90 33.46 155.97 33.84Q156.05 34.22 156.66 34.45L156.66 34.45L157.29 34.71L157.29 35ZM160.83 19.14L157.70 28.16L163.76 28.16L160.83 19.14ZM180.00 35L172.55 35L172.55 34.71L173.13 34.48Q173.71 34.27 173.90 33.93Q174.08 33.58 174.08 33.00L174.08 33.00L174.08 17.86Q174.08 17.28 173.91 16.93Q173.74 16.58 173.13 16.38L173.13 16.38L172.55 16.15L172.55 15.86L180.00 15.86L180.00 16.15L179.42 16.38Q178.84 16.58 178.65 16.93Q178.46 17.28 178.46 17.86L178.46 17.86L178.46 33.00Q178.46 33.58 178.65 33.91Q178.84 34.25 179.42 34.48L179.42 34.48L180.00 34.71L180.00 35Z"/></g>
                
            </svg>
        