
            <svg data-logo="logo" xmlns="http://www.w3.org/2000/svg" viewBox="0 0 212 40">
                <g id="logogram" transform="translate(0, 0)"><path d="M68.75 0H96.25L72.5 40H45L68.75 0Z" fill="#FF7A00"/><path d="M43.75 0H63.75L40 40H20L43.75 0Z" fill="#FF9736"/><path d="M23.75 0H38.75L15 40H0L23.75 0Z" fill="#FFBC7D"/></g>
                <g id="logotype" transform="translate(103, 2.5)"><path fill="#6d20cb" d="M7.19 35L7.19 14.70L11.19 14.70L14.29 26.85L14.35 26.85L14.35 14.70L17.19 14.70L17.19 35L13.92 35L10.09 20.18L10.03 20.18L10.03 35L7.19 35ZM19.57 35L19.57 14.70L28.27 14.70L28.27 17.60L22.76 17.60L22.76 22.96L27.14 22.96L27.14 25.87L22.76 25.87L22.76 32.10L28.27 32.10L28.27 35L19.57 35ZM37.23 35L37.23 17.60L33.90 17.60L33.90 14.70L43.76 14.70L43.76 17.60L40.42 17.60L40.42 35L37.23 35ZM45.30 35L45.30 14.70L50.02 14.70Q52.49 14.70 53.62 15.85Q54.75 16.99 54.75 19.37L54.75 19.37L54.75 20.62Q54.75 23.78 52.66 24.62L52.66 24.62L52.66 24.68Q53.82 25.02 54.30 26.10Q54.78 27.17 54.78 28.97L54.78 28.97L54.78 32.53Q54.78 33.41 54.84 33.94Q54.89 34.48 55.13 35L55.13 35L51.88 35Q51.70 34.51 51.65 34.07Q51.59 33.64 51.59 32.51L51.59 32.51L51.59 28.79Q51.59 27.40 51.14 26.85Q50.69 26.30 49.59 26.30L49.59 26.30L48.49 26.30L48.49 35L45.30 35ZM48.49 23.40L49.65 23.40Q50.60 23.40 51.08 22.91Q51.56 22.41 51.56 21.25L51.56 21.25L51.56 19.69Q51.56 18.59 51.17 18.09Q50.78 17.60 49.94 17.60L49.94 17.60L48.49 17.60L48.49 23.40ZM56.14 35L59.45 14.70L63.77 14.70L67.07 35L63.88 35L63.30 30.97L63.30 31.03L59.68 31.03L59.10 35L56.14 35ZM60.06 28.27L62.93 28.27L61.51 18.24L61.45 18.24L60.06 28.27ZM70.03 35L66.96 14.70L70.18 14.70L72.27 30.45L72.32 30.45L74.41 14.70L77.34 14.70L74.27 35L70.03 35ZM78.88 35L78.88 14.70L87.58 14.70L87.58 17.60L82.07 17.60L82.07 22.96L86.45 22.96L86.45 25.87L82.07 25.87L82.07 32.10L87.58 32.10L87.58 35L78.88 35ZM89.40 35L89.40 14.70L92.59 14.70L92.59 32.10L97.84 32.10L97.84 35L89.40 35ZM103.53 35.29Q101.21 35.29 100.02 33.97Q98.83 32.65 98.83 30.19L98.83 30.19L98.83 29.03L101.85 29.03L101.85 30.42Q101.85 32.39 103.50 32.39L103.50 32.39Q104.31 32.39 104.73 31.91Q105.15 31.43 105.15 30.36L105.15 30.36Q105.15 29.08 104.57 28.11Q103.99 27.14 102.43 25.78L102.43 25.78Q100.45 24.04 99.67 22.63Q98.89 21.23 98.89 19.46L98.89 19.46Q98.89 17.05 100.11 15.73Q101.32 14.41 103.64 14.41L103.64 14.41Q105.93 14.41 107.11 15.73Q108.28 17.05 108.28 19.51L108.28 19.51L108.28 20.35L105.27 20.35L105.27 19.31Q105.27 18.27 104.86 17.79Q104.46 17.31 103.67 17.31L103.67 17.31Q102.08 17.31 102.08 19.25L102.08 19.25Q102.08 20.35 102.67 21.31Q103.27 22.27 104.83 23.63L104.83 23.63Q106.83 25.37 107.59 26.79Q108.34 28.21 108.34 30.13L108.34 30.13Q108.34 32.62 107.11 33.96Q105.88 35.29 103.53 35.29L103.53 35.29Z"/></g>
                
            </svg>
        