<?xml version="1.0" encoding="UTF-8"?>
<svg xmlns="http://www.w3.org/2000/svg" xmlns:xlink="http://www.w3.org/1999/xlink" width="300px" height="37px" viewBox="0 0 301 37" version="1.1">
<g id="surface1">
<path style=" stroke:none;fill-rule:nonzero;fill:rgb(10.196079%,27.450982%,53.333336%);fill-opacity:1;" d="M 34.800781 29.347656 C 32.253906 33.9375 27.066406 36.117188 21.824219 36.117188 L 0.78125 36.117188 C 22.6875 33.378906 37.941406 22.414062 39.898438 7.144531 C 41.851562 22.414062 57.109375 33.378906 79.011719 36.117188 L 57.972656 36.117188 C 52.726562 36.117188 47.539062 33.9375 44.992188 29.347656 C 42.234375 24.382812 40.476562 18.761719 39.898438 12.628906 C 39.316406 18.761719 37.558594 24.382812 34.800781 29.347656 Z M 34.800781 29.347656 "/>
<path style=" stroke:none;fill-rule:nonzero;fill:rgb(49.803922%,70.980394%,90.196079%);fill-opacity:1;" d="M 22.769531 27.726562 C 21.539062 28.417969 20.246094 29.070312 18.894531 29.675781 C 18.125 27.015625 17.839844 24.226562 18.066406 21.449219 C 18.367188 17.773438 19.542969 14.230469 21.5 11.132812 C 23.457031 8.035156 26.128906 5.480469 29.277344 3.691406 C 32.429688 1.90625 35.960938 0.941406 39.5625 0.882812 C 43.164062 0.828125 46.726562 1.679688 49.925781 3.371094 C 53.128906 5.058594 55.875 7.53125 57.921875 10.566406 C 59.96875 13.601562 61.253906 17.105469 61.660156 20.769531 C 61.996094 23.765625 61.734375 26.796875 60.902344 29.675781 C 59.546875 29.070312 58.253906 28.417969 57.027344 27.726562 C 57.542969 25.621094 57.6875 23.429688 57.449219 21.261719 C 57.117188 18.304688 56.082031 15.480469 54.433594 13.03125 C 52.78125 10.585938 50.566406 8.59375 47.984375 7.230469 C 45.402344 5.867188 42.53125 5.179688 39.628906 5.226562 C 36.722656 5.269531 33.875 6.046875 31.332031 7.488281 C 28.792969 8.929688 26.640625 10.992188 25.0625 13.488281 C 23.484375 15.988281 22.535156 18.84375 22.292969 21.808594 C 22.132812 23.800781 22.292969 25.800781 22.769531 27.726562 Z M 22.769531 27.726562 "/>
<path style=" stroke:none;fill-rule:nonzero;fill:rgb(0%,0%,0%);fill-opacity:1;" d="M 101.144531 30.832031 L 101.144531 21.988281 C 101.144531 20.460938 100.949219 19.382812 100.5625 18.746094 C 100.167969 18.113281 99.496094 17.796875 98.546875 17.796875 C 98.253906 17.796875 97.949219 17.8125 97.632812 17.847656 C 97.316406 17.878906 97.007812 17.914062 96.707031 17.953125 L 96.707031 30.832031 L 91.988281 30.832031 L 91.988281 14.722656 C 92.390625 14.613281 92.859375 14.503906 93.398438 14.386719 C 93.9375 14.273438 94.511719 14.167969 95.113281 14.070312 C 95.710938 13.976562 96.328125 13.902344 96.960938 13.847656 C 97.597656 13.796875 98.222656 13.769531 98.835938 13.769531 C 100.039062 13.769531 101.015625 13.921875 101.769531 14.226562 C 102.511719 14.539062 103.128906 14.90625 103.617188 15.328125 C 104.289062 14.839844 105.070312 14.460938 105.949219 14.183594 C 106.824219 13.90625 107.628906 13.769531 108.367188 13.769531 C 109.699219 13.769531 110.796875 13.953125 111.652344 14.324219 C 112.507812 14.695312 113.1875 15.21875 113.695312 15.890625 C 114.199219 16.574219 114.546875 17.378906 114.742188 18.304688 C 114.929688 19.234375 115.023438 20.269531 115.023438 21.414062 L 115.023438 30.832031 L 110.304688 30.832031 L 110.304688 21.988281 C 110.304688 20.460938 110.109375 19.382812 109.714844 18.746094 C 109.328125 18.113281 108.660156 17.796875 107.707031 17.796875 C 107.449219 17.796875 107.09375 17.859375 106.644531 17.988281 C 106.191406 18.117188 105.816406 18.277344 105.515625 18.464844 C 105.664062 18.953125 105.761719 19.464844 105.808594 20.007812 C 105.847656 20.539062 105.871094 21.117188 105.871094 21.734375 L 105.871094 30.832031 Z M 125.671875 27.539062 C 126.136719 27.539062 126.578125 27.527344 127 27.503906 C 127.421875 27.480469 127.761719 27.449219 128.011719 27.40625 L 128.011719 23.820312 C 127.824219 23.78125 127.539062 23.738281 127.160156 23.699219 C 126.777344 23.65625 126.429688 23.636719 126.113281 23.636719 C 125.671875 23.636719 125.253906 23.664062 124.863281 23.714844 C 124.46875 23.769531 124.125 23.867188 123.832031 24.015625 C 123.539062 24.160156 123.308594 24.359375 123.136719 24.613281 C 122.96875 24.871094 122.882812 25.1875 122.882812 25.566406 C 122.882812 26.304688 123.132812 26.820312 123.628906 27.105469 C 124.121094 27.394531 124.804688 27.539062 125.671875 27.539062 Z M 125.292969 13.707031 C 126.683594 13.707031 127.847656 13.867188 128.777344 14.183594 C 129.707031 14.5 130.449219 14.957031 131.003906 15.546875 C 131.570312 16.140625 131.964844 16.863281 132.195312 17.707031 C 132.429688 18.554688 132.546875 19.492188 132.546875 20.527344 L 132.546875 30.359375 C 131.871094 30.503906 130.933594 30.675781 129.730469 30.878906 C 128.519531 31.082031 127.0625 31.1875 125.355469 31.1875 C 124.277344 31.1875 123.296875 31.089844 122.425781 30.894531 C 121.542969 30.707031 120.789062 30.394531 120.152344 29.960938 C 119.519531 29.527344 119.035156 28.960938 118.703125 28.261719 C 118.359375 27.566406 118.191406 26.714844 118.191406 25.699219 C 118.191406 24.722656 118.386719 23.898438 118.78125 23.222656 C 119.167969 22.546875 119.691406 22.007812 120.347656 21.601562 C 121.003906 21.203125 121.753906 20.910156 122.601562 20.730469 C 123.445312 20.550781 124.320312 20.464844 125.222656 20.464844 C 125.839844 20.464844 126.386719 20.492188 126.859375 20.542969 C 127.335938 20.597656 127.71875 20.664062 128.011719 20.746094 L 128.011719 20.304688 C 128.011719 19.5 127.769531 18.855469 127.28125 18.367188 C 126.800781 17.878906 125.957031 17.636719 124.746094 17.636719 C 123.949219 17.636719 123.15625 17.695312 122.371094 17.8125 C 121.589844 17.929688 120.917969 18.09375 120.347656 18.304688 L 119.75 14.5 C 120.019531 14.417969 120.363281 14.328125 120.777344 14.226562 C 121.1875 14.132812 121.636719 14.050781 122.125 13.980469 C 122.605469 13.90625 123.117188 13.839844 123.65625 13.785156 C 124.195312 13.734375 124.742188 13.707031 125.292969 13.707031 Z M 141.539062 6.21875 L 141.539062 20.171875 C 142.011719 19.667969 142.492188 19.140625 142.984375 18.589844 C 143.484375 18.042969 143.964844 17.5 144.425781 16.957031 C 144.890625 16.417969 145.328125 15.902344 145.738281 15.417969 C 146.15625 14.933594 146.511719 14.511719 146.804688 14.148438 L 152.410156 14.148438 C 151.289062 15.441406 150.199219 16.671875 149.136719 17.847656 C 148.066406 19.023438 146.898438 20.234375 145.632812 21.476562 C 146.265625 22.046875 146.921875 22.730469 147.59375 23.519531 C 148.269531 24.3125 148.925781 25.132812 149.558594 25.980469 C 150.191406 26.824219 150.773438 27.671875 151.300781 28.515625 C 151.828125 29.363281 152.273438 30.132812 152.628906 30.832031 L 147.21875 30.832031 C 146.875 30.28125 146.488281 29.671875 146.054688 29.007812 C 145.628906 28.347656 145.167969 27.679688 144.683594 27.011719 C 144.195312 26.347656 143.683594 25.707031 143.140625 25.089844 C 142.601562 24.480469 142.070312 23.960938 141.539062 23.539062 L 141.539062 30.832031 L 136.824219 30.832031 L 136.824219 6.984375 Z M 153.238281 22.621094 C 153.238281 21.144531 153.464844 19.847656 153.914062 18.738281 C 154.371094 17.628906 154.972656 16.703125 155.710938 15.960938 C 156.449219 15.222656 157.296875 14.660156 158.253906 14.28125 C 159.214844 13.898438 160.203125 13.707031 161.21875 13.707031 C 163.585938 13.707031 165.453125 14.433594 166.824219 15.882812 C 168.199219 17.328125 168.886719 19.457031 168.886719 22.269531 C 168.886719 22.546875 168.875 22.847656 168.859375 23.179688 C 168.835938 23.5 168.8125 23.792969 168.789062 24.050781 L 158.085938 24.050781 C 158.191406 25.019531 158.644531 25.789062 159.441406 26.359375 C 160.246094 26.933594 161.324219 27.222656 162.679688 27.222656 C 163.542969 27.222656 164.390625 27.140625 165.222656 26.984375 C 166.0625 26.824219 166.746094 26.628906 167.273438 26.394531 L 167.910156 30.234375 C 167.652344 30.359375 167.308594 30.484375 166.886719 30.613281 C 166.464844 30.738281 165.996094 30.847656 165.480469 30.949219 C 164.964844 31.042969 164.410156 31.121094 163.816406 31.1875 C 163.222656 31.246094 162.632812 31.273438 162.046875 31.273438 C 160.546875 31.273438 159.238281 31.054688 158.128906 30.613281 C 157.023438 30.167969 156.101562 29.558594 155.375 28.789062 C 154.648438 28.015625 154.109375 27.097656 153.757812 26.039062 C 153.410156 24.984375 153.238281 23.84375 153.238281 22.621094 Z M 158.085938 20.808594 L 164.328125 20.808594 C 164.304688 20.410156 164.234375 20.019531 164.117188 19.636719 C 164.003906 19.253906 163.824219 18.917969 163.578125 18.625 C 163.339844 18.328125 163.03125 18.085938 162.664062 17.890625 C 162.292969 17.703125 161.832031 17.609375 161.28125 17.609375 C 160.753906 17.609375 160.296875 17.699219 159.917969 17.875 C 159.542969 18.054688 159.226562 18.292969 158.964844 18.589844 C 158.714844 18.886719 158.519531 19.230469 158.386719 19.617188 C 158.246094 20.011719 158.144531 20.410156 158.085938 20.808594 Z M 173.957031 8.855469 L 178.679688 8.855469 C 179.058594 9.550781 179.492188 10.414062 179.992188 11.445312 C 180.492188 12.464844 181.007812 13.574219 181.542969 14.773438 C 182.082031 15.964844 182.617188 17.183594 183.144531 18.429688 C 183.671875 19.679688 184.167969 20.855469 184.632812 21.953125 C 185.101562 20.855469 185.597656 19.679688 186.128906 18.429688 C 186.65625 17.183594 187.1875 15.964844 187.71875 14.773438 C 188.261719 13.574219 188.777344 12.464844 189.277344 11.445312 C 189.769531 10.414062 190.207031 9.550781 190.589844 8.855469 L 195.085938 8.855469 C 195.296875 10.316406 195.496094 11.949219 195.675781 13.75 C 195.859375 15.5625 196.015625 17.441406 196.152344 19.398438 C 196.285156 21.355469 196.414062 23.316406 196.53125 25.285156 C 196.648438 27.25 196.746094 29.101562 196.828125 30.832031 L 192.015625 30.832031 C 191.949219 28.695312 191.867188 26.371094 191.761719 23.855469 C 191.652344 21.34375 191.496094 18.804688 191.285156 16.246094 C 190.910156 17.132812 190.488281 18.117188 190.015625 19.195312 C 189.554688 20.269531 189.097656 21.347656 188.644531 22.429688 C 188.1875 23.507812 187.746094 24.539062 187.324219 25.519531 C 186.902344 26.503906 186.542969 27.34375 186.25 28.039062 L 182.800781 28.039062 C 182.5 27.34375 182.140625 26.503906 181.71875 25.519531 C 181.296875 24.539062 180.859375 23.507812 180.40625 22.429688 C 179.949219 21.347656 179.488281 20.269531 179.023438 19.195312 C 178.5625 18.117188 178.136719 17.132812 177.757812 16.246094 C 177.546875 18.804688 177.386719 21.34375 177.28125 23.855469 C 177.175781 26.371094 177.089844 28.695312 177.027344 30.832031 L 172.210938 30.832031 C 172.300781 29.101562 172.398438 27.25 172.511719 25.285156 C 172.628906 23.316406 172.757812 21.355469 172.898438 19.398438 C 173.035156 17.441406 173.191406 15.5625 173.375 13.75 C 173.550781 11.949219 173.742188 10.316406 173.957031 8.855469 Z M 210.867188 14.148438 L 215.75 14.148438 C 214.800781 17.367188 213.808594 20.378906 212.769531 23.1875 C 211.734375 26 210.605469 28.726562 209.378906 31.371094 C 208.933594 32.320312 208.492188 33.132812 208.050781 33.800781 C 207.605469 34.464844 207.117188 35.015625 206.589844 35.449219 C 206.0625 35.882812 205.464844 36.203125 204.804688 36.402344 C 204.132812 36.601562 203.355469 36.699219 202.472656 36.699219 C 201.730469 36.699219 201.050781 36.632812 200.429688 36.496094 C 199.808594 36.355469 199.292969 36.203125 198.890625 36.03125 L 199.714844 32.261719 C 200.203125 32.429688 200.636719 32.546875 201.019531 32.613281 C 201.394531 32.671875 201.792969 32.699219 202.214844 32.699219 C 203.0625 32.699219 203.710938 32.476562 204.167969 32.023438 C 204.621094 31.570312 205.003906 30.941406 205.324219 30.136719 C 204.25 28.023438 203.171875 25.652344 202.09375 23.019531 C 201.011719 20.382812 199.996094 17.425781 199.046875 14.148438 L 204.054688 14.148438 C 204.265625 14.976562 204.515625 15.871094 204.804688 16.835938 C 205.085938 17.792969 205.382812 18.765625 205.699219 19.75 C 206.019531 20.730469 206.339844 21.6875 206.667969 22.621094 C 206.996094 23.550781 207.308594 24.398438 207.601562 25.160156 C 207.878906 24.398438 208.164062 23.550781 208.464844 22.621094 C 208.757812 21.6875 209.046875 20.730469 209.335938 19.75 C 209.617188 18.765625 209.890625 17.792969 210.15625 16.835938 C 210.417969 15.871094 210.65625 14.976562 210.867188 14.148438 Z M 225.1875 8.597656 C 228.460938 8.597656 230.976562 9.175781 232.730469 10.332031 C 234.484375 11.484375 235.359375 13.371094 235.359375 15.988281 C 235.359375 18.632812 234.476562 20.539062 232.703125 21.714844 C 230.925781 22.890625 228.390625 23.476562 225.097656 23.476562 L 223.539062 23.476562 L 223.539062 30.832031 L 218.601562 30.832031 L 218.601562 9.171875 C 219.675781 8.960938 220.816406 8.8125 222.019531 8.730469 C 223.226562 8.640625 224.28125 8.597656 225.1875 8.597656 Z M 225.503906 12.816406 C 225.144531 12.816406 224.792969 12.828125 224.449219 12.851562 C 224.09375 12.871094 223.792969 12.890625 223.539062 12.914062 L 223.539062 19.257812 L 225.097656 19.257812 C 226.804688 19.257812 228.09375 19.027344 228.960938 18.5625 C 229.824219 18.097656 230.257812 17.230469 230.257812 15.960938 C 230.257812 15.347656 230.148438 14.839844 229.929688 14.4375 C 229.707031 14.035156 229.390625 13.710938 228.980469 13.46875 C 228.5625 13.230469 228.0625 13.058594 227.476562 12.957031 C 226.882812 12.863281 226.226562 12.816406 225.503906 12.816406 Z M 246.011719 27.246094 L 245.339844 31.152344 C 243.96875 31.128906 242.855469 30.980469 241.996094 30.710938 C 241.140625 30.433594 240.464844 30.046875 239.972656 29.546875 C 239.472656 29.054688 239.136719 28.453125 238.960938 27.742188 C 238.777344 27.03125 238.6875 26.230469 238.6875 25.34375 L 238.6875 6.984375 L 243.40625 6.21875 L 243.40625 24.394531 C 243.40625 24.816406 243.4375 25.199219 243.503906 25.539062 C 243.566406 25.875 243.691406 26.160156 243.871094 26.394531 C 244.046875 26.628906 244.304688 26.820312 244.644531 26.964844 C 244.980469 27.113281 245.433594 27.207031 246.011719 27.246094 Z M 255.542969 27.539062 C 256.003906 27.539062 256.449219 27.527344 256.871094 27.503906 C 257.292969 27.480469 257.632812 27.449219 257.890625 27.40625 L 257.890625 23.820312 C 257.699219 23.78125 257.410156 23.738281 257.03125 23.699219 C 256.652344 23.65625 256.308594 23.636719 255.992188 23.636719 C 255.542969 23.636719 255.125 23.664062 254.730469 23.714844 C 254.34375 23.769531 254 23.867188 253.703125 24.015625 C 253.410156 24.160156 253.175781 24.359375 253.007812 24.613281 C 252.835938 24.871094 252.753906 25.1875 252.753906 25.566406 C 252.753906 26.304688 253 26.820312 253.5 27.105469 C 254 27.394531 254.679688 27.539062 255.542969 27.539062 Z M 255.164062 13.707031 C 256.558594 13.707031 257.722656 13.867188 258.648438 14.183594 C 259.574219 14.5 260.320312 14.957031 260.882812 15.546875 C 261.441406 16.140625 261.835938 16.863281 262.074219 17.707031 C 262.300781 18.554688 262.414062 19.492188 262.414062 20.527344 L 262.414062 30.359375 C 261.742188 30.503906 260.800781 30.675781 259.597656 30.878906 C 258.394531 31.082031 256.9375 31.1875 255.226562 31.1875 C 254.152344 31.1875 253.175781 31.089844 252.292969 30.894531 C 251.421875 30.707031 250.667969 30.394531 250.03125 29.960938 C 249.398438 29.527344 248.910156 28.960938 248.570312 28.261719 C 248.238281 27.566406 248.070312 26.714844 248.070312 25.699219 C 248.070312 24.722656 248.261719 23.898438 248.652344 23.222656 C 249.042969 22.546875 249.566406 22.007812 250.21875 21.601562 C 250.875 21.203125 251.625 20.910156 252.46875 20.730469 C 253.316406 20.550781 254.191406 20.464844 255.101562 20.464844 C 255.710938 20.464844 256.253906 20.492188 256.730469 20.542969 C 257.207031 20.597656 257.59375 20.664062 257.890625 20.746094 L 257.890625 20.304688 C 257.890625 19.5 257.648438 18.855469 257.160156 18.367188 C 256.675781 17.878906 255.828125 17.636719 254.625 17.636719 C 253.824219 17.636719 253.03125 17.695312 252.25 17.8125 C 251.46875 17.929688 250.792969 18.09375 250.21875 18.304688 L 249.617188 14.5 C 249.894531 14.417969 250.238281 14.328125 250.648438 14.226562 C 251.058594 14.132812 251.507812 14.050781 251.996094 13.980469 C 252.480469 13.90625 252.996094 13.839844 253.535156 13.785156 C 254.070312 13.734375 254.613281 13.707031 255.164062 13.707031 Z M 266.691406 30.832031 L 266.691406 14.722656 C 267.496094 14.492188 268.53125 14.273438 269.800781 14.070312 C 271.066406 13.867188 272.398438 13.769531 273.796875 13.769531 C 275.210938 13.769531 276.386719 13.953125 277.324219 14.324219 C 278.261719 14.695312 279.007812 15.21875 279.558594 15.890625 C 280.113281 16.574219 280.503906 17.378906 280.730469 18.304688 C 280.964844 19.234375 281.082031 20.269531 281.082031 21.414062 L 281.082031 30.832031 L 276.355469 30.832031 L 276.355469 21.988281 C 276.355469 20.460938 276.15625 19.382812 275.757812 18.746094 C 275.359375 18.113281 274.609375 17.796875 273.503906 17.796875 C 273.171875 17.796875 272.8125 17.8125 272.429688 17.847656 C 272.050781 17.878906 271.710938 17.914062 271.417969 17.953125 L 271.417969 30.832031 Z M 284.566406 22.621094 C 284.566406 21.144531 284.792969 19.847656 285.246094 18.738281 C 285.703125 17.628906 286.300781 16.703125 287.042969 15.960938 C 287.78125 15.222656 288.628906 14.660156 289.585938 14.28125 C 290.546875 13.898438 291.535156 13.707031 292.550781 13.707031 C 294.914062 13.707031 296.785156 14.433594 298.15625 15.882812 C 299.53125 17.328125 300.214844 19.457031 300.214844 22.269531 C 300.214844 22.546875 300.207031 22.847656 300.191406 23.179688 C 300.167969 23.5 300.144531 23.792969 300.121094 24.050781 L 289.417969 24.050781 C 289.523438 25.019531 289.976562 25.789062 290.773438 26.359375 C 291.578125 26.933594 292.65625 27.222656 294.011719 27.222656 C 294.875 27.222656 295.722656 27.140625 296.554688 26.984375 C 297.394531 26.824219 298.078125 26.628906 298.605469 26.394531 L 299.238281 30.234375 C 298.980469 30.359375 298.640625 30.484375 298.21875 30.613281 C 297.796875 30.738281 297.328125 30.847656 296.8125 30.949219 C 296.292969 31.042969 295.738281 31.121094 295.148438 31.1875 C 294.554688 31.246094 293.964844 31.273438 293.378906 31.273438 C 291.875 31.273438 290.570312 31.054688 289.460938 30.613281 C 288.351562 30.167969 287.433594 29.558594 286.707031 28.789062 C 285.980469 28.015625 285.441406 27.097656 285.085938 26.039062 C 284.742188 24.984375 284.566406 23.84375 284.566406 22.621094 Z M 289.417969 20.808594 L 295.65625 20.808594 C 295.632812 20.410156 295.5625 20.019531 295.445312 19.636719 C 295.335938 19.253906 295.15625 18.917969 294.910156 18.625 C 294.667969 18.328125 294.363281 18.085938 293.996094 17.890625 C 293.625 17.703125 293.164062 17.609375 292.613281 17.609375 C 292.085938 17.609375 291.628906 17.699219 291.25 17.875 C 290.871094 18.054688 290.554688 18.292969 290.296875 18.589844 C 290.046875 18.886719 289.851562 19.230469 289.71875 19.617188 C 289.574219 20.011719 289.476562 20.410156 289.417969 20.808594 Z M 289.417969 20.808594 "/>
</g>
</svg>
